:version 1.10
:name ASF
:units
  mass 1
  length 1
  angle deg
:documentation
  ASF file generated by Kaydara
:root
  axis xyz
  order  tx ty tz rx ry rz
  position 0 0 0
  orientation 0 0 0
:bonedata
  begin
    id 1
    name RightUpLegDummy
    direction -0.65628 -0.754516 0.00165102
    length 4.76918
    axis 0 0 0 xyz
  end
  begin
    id 2
    name RightUpLeg
    direction -0.145584 -0.923362 0.355256
    length 17.9961
    axis -24.7611 -13.1006 1.78531 xyz
    dof rx ry rz
  end
  begin
    id 3
    name RightLeg
    direction 0.263379 0.172355 -0.949171
    length 13.3386
    axis 89.6202 -21.1929 12.3855 xyz
    dof rx ry rz
  end
  begin
    id 4
    name RightFoot
    direction 0.224283 -0.968777 -0.105675
    length 5.86697
    axis 56.995 -39.6905 17.3365 xyz
    dof rx ry rz
  end
  begin
    id 5
    name RightToes
    direction -0.0806345 -0.9037 0.420506
    length 4.75197
    axis 146.825 -39.7828 17.6019 xyz
    dof rx ry rz
  end
  begin
    id 6
    name SpineDummy
    direction -3.39852e-014 1 9.33296e-014
    length 8.13779
    axis 0 0 0 xyz
  end
  begin
    id 7
    name Spine
    direction -0.156609 0.733703 0.661176
    length 7.14978
    axis 41.2365 5.68757 17.0844 xyz
    dof rx ry rz
  end
  begin
    id 8
    name Spine1
    direction 0 0 0
    length 0
    axis 42.8809 47.8308 -3.36039 xyz
    dof rx ry rz
  end
  begin
    id 9
    name HEadDummy
    direction 0.546431 0.701947 0.456819
    length 3.55512
    axis 42.8809 47.8308 -3.36039 xyz
  end
  begin
    id 10
    name HEad
    direction 0.23444 0.828559 0.508457
    length 7.35827
    axis 51.1864 49.2662 27.4903 xyz
    dof rx ry rz
  end
  begin
    id 11
    name LeftShoulder1Dummy
    direction 0.431183 0.475873 -0.766568
    length 2.49352
    axis 42.8809 47.8308 -3.36039 xyz
  end
  begin
    id 12
    name LeftShoulder1
    direction 0.268187 -0.383402 -0.883786
    length 4.48604
    axis -119.517 0.106469 35.1736 xyz
    dof rx ry rz
  end
  begin
    id 13
    name LeftArm
    direction 0.380567 -0.703221 -0.600541
    length 10.1142
    axis -5.41825 36.2925 7.8293 xyz
    dof rx ry rz
  end
  begin
    id 14
    name LeftForeArm
    direction 0.541071 -0.732356 -0.413396
    length 9.39839
    axis 4.65387 33.7604 7.81644 xyz
    dof rx ry rz
  end
  begin
    id 15
    name LeftHand
    direction 0.847511 -0.389379 -0.360707
    length 3.66142
    axis 7.65593 21.1436 -24.6758 xyz
    dof rx ry rz
  end
  begin
    id 16
    name RightShoulderDummy
    direction -0.692546 0.541855 0.476208
    length 2.49352
    axis 42.8809 47.8308 -3.36039 xyz
  end
  begin
    id 17
    name RightShoulder
    direction -0.870808 -0.316653 0.376065
    length 4.48602
    axis 141.571 51.133 -100.254 xyz
    dof rx ry rz
  end
  begin
    id 18
    name RightArm
    direction 0.366897 -0.87275 0.322015
    length 10.1142
    axis 92.3258 71.2036 138.917 xyz
    dof rx ry rz
  end
  begin
    id 19
    name RightForeArm
    direction 0.702487 -0.694568 0.155197
    length 9.39835
    axis 153.863 41.5092 -176.604 xyz
    dof rx ry rz
  end
  begin
    id 20
    name RightHand
    direction 0.79502 -0.601276 0.0800636
    length 3.66142
    axis 154.247 4.59222 142.9 xyz
    dof rx ry rz
  end
  begin
    id 21
    name LeftUpLegDummy
    direction 0.65628 -0.754516 0.00165102
    length 4.76919
    axis 0 0 0 xyz
  end
  begin
    id 22
    name LeftUpLeg
    direction -0.1277 -0.689368 0.713067
    length 17.9961
    axis -48.3385 -17.8675 0.791927 xyz
    dof rx ry rz
  end
  begin
    id 23
    name LeftLeg
    direction 0.109849 -0.991246 -0.0732378
    length 13.3386
    axis -2.05791 -7.30784 1.72042 xyz
    dof rx ry rz
  end
  begin
    id 24
    name LeftFoot
    direction 0.0448355 -0.272614 0.961078
    length 5.86697
    axis -18.7733 -7.89606 10.2113 xyz
    dof rx ry rz
  end
  begin
    id 25
    name LeftToes
    direction -0.18506 0.293668 0.937823
    length 4.75197
    axis 71.2267 -7.89606 10.2113 xyz
    dof rx ry rz
  end
:hierarchy
  begin
    root RightUpLegDummy SpineDummy LeftUpLegDummy
    RightUpLegDummy RightUpLeg
    RightUpLeg RightLeg
    RightLeg RightFoot
    RightFoot RightToes
    SpineDummy Spine
    Spine Spine1
    Spine1 HEadDummy LeftShoulder1Dummy RightShoulderDummy
    HEadDummy HEad
    LeftShoulder1Dummy LeftShoulder1
    LeftShoulder1 LeftArm
    LeftArm LeftForeArm
    LeftForeArm LeftHand
    RightShoulderDummy RightShoulder
    RightShoulder RightArm
    RightArm RightForeArm
    RightForeArm RightHand
    LeftUpLegDummy LeftUpLeg
    LeftUpLeg LeftLeg
    LeftLeg LeftFoot
    LeftFoot LeftToes
  end

:SAMPLES-PER-SECOND 30
:FULLY-SPECIFIED
:DEGREES
588
root  6.10525 30.4421 -14.4325 -109.611 30.5238 -176.812
RightUpLeg  -42.7912 9.29396 -16.0894
RightLeg  -25.8328 -26.4321 1.62855
RightFoot  -3.09869 0.350501 1.01652
RightToes  -1.27222e-014 -6.36111e-015 6.36111e-015
Spine  1.81897 -12.022 3.82974
Spine1  3.19162 -12.6731 28.0451
HEad  -27.0543 -24.5901 2.34203
LeftShoulder1  6.36111e-015 -1.33558e-015 6.49777e-015
LeftArm  -50.5738 -36.923 -3.04954
LeftForeArm  -14.7922 -6.03849 -2.74288
LeftHand  -0.358864 -1.00425 0.441693
RightShoulder  -4.77083e-015 -6.36111e-015 -3.18055e-015
RightArm  -25.4812 9.72852 -29.6327
RightForeArm  -19.8253 -42.912 -1.80313
RightHand  25.2026 -17.6361 -63.8353
LeftUpLeg  -13.6787 31.3677 15.6726
LeftLeg  34.182 -12.7686 -6.75172
LeftFoot  -18.1373 2.79904 -20.7554
LeftToes  1.27222e-014 -5.20697e-012 1.80337e-011
589
root  5.10421 30.497 -14.0647 -106.647 25.7848 -163.003
RightUpLeg  -43.5286 10.8083 -16.6349
RightLeg  -28.634 -26.5371 2.35288
RightFoot  -2.11874 0.15084 0.875353
RightToes  -1.27222e-014 -6.36111e-015 6.36111e-015
Spine  5.42471 -9.68256 7.35131
Spine1  3.53053 -9.9928 15.2781
HEad  -27.9499 -25.6048 1.74325
LeftShoulder1  6.36111e-015 -1.33558e-015 6.49777e-015
LeftArm  -52.514 -39.4766 0.709382
LeftForeArm  -11.3166 -6.36428 -2.50165
LeftHand  0.765126 0.942818 4.14268
RightShoulder  -4.77083e-015 -6.36111e-015 -3.18055e-015
RightArm  -25.4819 7.53419 -27.8087
RightForeArm  -13.21 -43.3872 -2.25214
RightHand  22.7373 -20.9912 -52.912
LeftUpLeg  -17.4931 33.2179 16.7564
LeftLeg  37.3351 -12.2082 -7.00484
LeftFoot  -20.96 2.26493 -20.5692
LeftToes  1.27222e-014 -5.20697e-012 1.80337e-011
590
root  4.40234 30.219 -13.2592 -108.672 21.501 -151.47
RightUpLeg  -44.0485 11.0949 -16.009
RightLeg  -26.1227 -26.0499 1.56734
RightFoot  -2.62014 0.235194 0.990014
RightToes  -1.27222e-014 -6.36111e-015 6.36111e-015
Spine  7.4714 -8.44003 6.27167
Spine1  4.02594 -7.56579 10.1931
HEad  -28.0207 -24.4581 -1.52555
LeftShoulder1  6.36111e-015 -1.33558e-015 6.49777e-015
LeftArm  -52.0796 -39.3602 4.84844
LeftForeArm  -8.52315 -7.0857 -2.79609
LeftHand  1.87658 2.85965 6.5539
RightShoulder  -4.77083e-015 -6.36111e-015 -3.18055e-015
RightArm  -22.0014 8.54606 -25.6274
RightForeArm  -8.59884 -35.0431 0.988911
RightHand  14.7103 -23.2169 -30.3715
LeftUpLeg  -17.9111 32.1649 19.8431
LeftLeg  39.3986 -7.24676 -2.51775
LeftFoot  -22.873 1.85889 -19.8795
LeftToes  1.27222e-014 -5.20697e-012 1.80337e-011
591
root  4.22535 29.6894 -12.1376 -115.314 18.0457 -143.935
RightUpLeg  -43.4109 10.6642 -15.7351
RightLeg  -19.4997 -26.7602 0.235477
RightFoot  -3.28186 0.714246 0.244114
RightToes  -1.27222e-014 -6.36111e-015 6.36111e-015
Spine  7.36111 -8.42784 2.96871
Spine1  4.73714 -6.60238 11.6285
HEad  -27.8789 -21.688 -4.23713
LeftShoulder1  6.36111e-015 -1.33558e-015 6.49777e-015
LeftArm  -48.8268 -38.0375 9.10226
LeftForeArm  -5.82429 -7.53899 -3.8999
LeftHand  2.72781 4.70384 6.6347
RightShoulder  -4.77083e-015 -6.36111e-015 -3.18055e-015
RightArm  -8.06135 17.7372 -21.2976
RightForeArm  -14.3756 -22.3214 2.36665
RightHand  5.11198 -16.6278 -8.12584
LeftUpLeg  -13.597 29.5298 23.5734
LeftLeg  40.8591 3.09427 8.79885
LeftFoot  -27.034 1.21091 -21.2099
LeftToes  1.27222e-014 -5.20697e-012 1.80337e-011
592
root  4.58797 29.1937 -10.9701 -124.125 14.6307 -140.069
RightUpLeg  -41.7058 10.2984 -14.7147
RightLeg  -11.5064 -27.4863 -1.46175
RightFoot  -4.00759 1.43636 -1.10415
RightToes  -1.27222e-014 -6.36111e-015 6.36111e-015
Spine  6.41912 -9.7585 0.0893326
Spine1  4.24829 -7.7987 15.0412
HEad  -28.3176 -18.1846 -4.90368
LeftShoulder1  6.36111e-015 -1.33558e-015 6.49777e-015
LeftArm  -43.8113 -34.0372 10.3235
LeftForeArm  -1.24719 -10.037 -5.11766
LeftHand  3.02897 5.41447 6.47856
RightShoulder  -4.77083e-015 -6.36111e-015 -3.18055e-015
RightArm  11.615 23.2915 -11.7085
RightForeArm  -26.0119 -9.51069 -10.0618
RightHand  0.950949 -7.76191 1.99186
LeftUpLeg  -5.90266 24.9599 28.1772
LeftLeg  43.7655 12.2622 20.6713
LeftFoot  -32.2386 0.279558 -25.5098
LeftToes  1.27222e-014 -5.20697e-012 1.80337e-011
593
root  5.36846 29.052 -10.0215 -132.442 10.713 -139.365
RightUpLeg  -40.1381 9.70664 -11.2831
RightLeg  -4.77305 -27.164 -2.92674
RightFoot  -5.14183 2.11329 -2.16151
RightToes  -1.27222e-014 -6.36111e-015 6.36111e-015
Spine  5.34904 -12.2958 -2.57029
Spine1  1.36199 -10.7172 19.7094
HEad  -30.7461 -14.3929 -4.18143
LeftShoulder1  6.36111e-015 -1.33558e-015 6.49777e-015
LeftArm  -38.4462 -28.9922 11.2511
LeftForeArm  4.42143 -13.3622 -6.18878
LeftHand  3.05392 5.32189 6.94136
RightShoulder  -4.77083e-015 -6.36111e-015 -3.18055e-015
RightArm  18.1186 13.5966 -9.57945
RightForeArm  -38.3249 6.19569 -24.2014
RightHand  -0.134586 -4.7536 5.67119
LeftUpLeg  1.2027 17.4634 32.2827
LeftLeg  46.7659 12.5371 23.2464
LeftFoot  -35.9922 -0.657864 -29.0464
LeftToes  1.27222e-014 -5.20697e-012 1.80337e-011
594
root  6.47363 29.4084 -9.32715 -139.947 6.11339 -141.871
RightUpLeg  -39.5152 8.88638 -5.88581
RightLeg  -1.61732 -26.3921 -3.50989
RightFoot  -5.73835 2.34563 -2.42046
RightToes  -1.27222e-014 -6.36111e-015 6.36111e-015
Spine  5.41453 -16.5971 -6.94202
Spine1  -3.6004 -14.7601 27.3493
HEad  -34.3925 -10.1584 -2.38941
LeftShoulder1  6.36111e-015 -1.33558e-015 6.49777e-015
LeftArm  -32.8681 -26.5586 15.6314
LeftForeArm  10.9 -14.5712 -8.78949
LeftHand  2.6903 5.36298 4.28417
RightShoulder  -4.77083e-015 -6.36111e-015 -3.18055e-015
RightArm  21.7994 3.58929 -7.59608
RightForeArm  -50.0633 12.0565 -36.2113
RightHand  -0.355641 -4.86262 7.05851
LeftUpLeg  5.69547 9.27495 34.3197
LeftLeg  48.1488 6.33987 15.9487
LeftFoot  -37.2459 -0.93645 -27.9997
LeftToes  1.27222e-014 -5.20697e-012 1.80337e-011
595
root  7.81121 30.1973 -8.86491 -147.402 0.094317 -146.944
RightUpLeg  -39.4781 8.23447 -0.803352
RightLeg  -4.16363 -26.1642 -3.00031
RightFoot  -4.78105 1.93367 -1.90899
RightToes  -1.27222e-014 -6.36111e-015 6.36111e-015
Spine  7.9458 -21.6318 -14.3638
Spine1  -7.81801 -18.0355 37.8541
HEad  -37.1243 -7.60012 -0.4075
LeftShoulder1  6.36111e-015 -1.33558e-015 6.49777e-015
LeftArm  -28.0537 -29.3461 20.6313
LeftForeArm  17.8836 -12.6383 -12.1565
LeftHand  0.859 3.51174 -4.3221
RightShoulder  -4.77083e-015 -6.36111e-015 -3.18055e-015
RightArm  23.4292 -4.58173 -7.22113
RightForeArm  -55.411 14.3112 -43.5552
RightHand  -0.381472 -4.21739 6.77944
LeftUpLeg  8.33947 3.58471 34.7122
LeftLeg  47.2633 0.585335 7.42387
LeftFoot  -34.923 -0.288362 -23.8511
LeftToes  1.27222e-014 -5.20697e-012 1.80337e-011
596
root  9.21825 31.1179 -8.65204 -153.878 -8.06382 -152.532
RightUpLeg  -40.1318 8.01067 2.12413
RightLeg  -12.4541 -26.1112 -1.37625
RightFoot  -2.32571 1.37691 -1.93633
RightToes  -1.27222e-014 -6.36111e-015 6.36111e-015
Spine  12.1556 -25.5814 -23.2745
Spine1  -10.6486 -19.7615 50.5286
HEad  -37.353 -6.66155 0.262002
LeftShoulder1  6.36111e-015 -1.33558e-015 6.49777e-015
LeftArm  -24.5905 -32.2605 22.7027
LeftForeArm  24.2789 -11.8175 -15.1882
LeftHand  -1.72727 -2.20826 -14.375
RightShoulder  -4.77083e-015 -6.36111e-015 -3.18055e-015
RightArm  24.5746 -9.77388 -6.1524
RightForeArm  -55.6596 15.2242 -45.6429
RightHand  -0.0347948 -3.86613 4.37389
LeftUpLeg  10.1187 0.503888 34.6541
LeftLeg  43.4201 -3.37497 1.68739
LeftFoot  -32.2857 0.233667 -19.2548
LeftToes  1.27222e-014 -5.20697e-012 1.80337e-011
597
root  10.6028 31.9041 -8.74663 -157.683 -17.906 -157.167
RightUpLeg  -42.2501 8.92269 2.52747
RightLeg  -24.6875 -25.615 1.09011
RightFoot  1.11864 1.42635 -3.85491
RightToes  -1.27222e-014 -6.36111e-015 6.36111e-015
Spine  14.7287 -27.913 -29.0086
Spine1  -12.3392 -20.5339 60.0713
HEad  -36.5287 -8.22624 1.4464
LeftShoulder1  6.36111e-015 -1.33558e-015 6.49777e-015
LeftArm  -23.9982 -34.5694 22.5891
LeftForeArm  28.6592 -15.202 -18.2254
LeftHand  -3.24352 -8.0675 -20.722
RightShoulder  -4.77083e-015 -6.36111e-015 -3.18055e-015
RightArm  26.0251 -13.7093 -5.66468
RightForeArm  -53.0622 14.7785 -42.7372
RightHand  0.715423 -4.80712 0.701953
LeftUpLeg  10.3572 -2.26464 35.0898
LeftLeg  38.0945 -9.45274 -4.57976
LeftFoot  -31.2824 0.334105 -14.6826
LeftToes  1.27222e-014 -5.20697e-012 1.80337e-011
598
root  11.9179 32.4675 -9.17547 -159.13 -28.214 -161.36
RightUpLeg  -45.0034 11.5711 -0.639362
RightLeg  -39.0471 -25.0197 4.33512
RightFoot  4.26017 1.56515 -5.58676
RightToes  -1.27222e-014 -6.36111e-015 6.36111e-015
Spine  15.4157 -28.7892 -31.7766
Spine1  -13.9157 -20.1139 65.6679
HEad  -36.4258 -13.2972 3.80408
LeftShoulder1  6.36111e-015 -1.33558e-015 6.49777e-015
LeftArm  -27.6159 -37.7581 21.2219
LeftForeArm  31.2364 -21.6826 -22.6434
LeftHand  -3.73811 -10.6653 -21.7909
RightShoulder  -4.77083e-015 -6.36111e-015 -3.18055e-015
RightArm  29.0107 -18.1857 -8.34602
RightForeArm  -47.6072 14.401 -38.4417
RightHand  1.40802 -5.39107 -2.66729
LeftUpLeg  8.97337 -4.38912 35.8655
LeftLeg  33.1075 -18.422 -10.9162
LeftFoot  -29.699 0.47454 -12.6292
LeftToes  1.27222e-014 -5.20697e-012 1.80337e-011
599
root  13.0602 32.7614 -9.77633 -159.958 -38.0898 -165.342
RightUpLeg  -46.7633 15.7789 -7.479
RightLeg  -53.8234 -24.2798 8.54771
RightFoot  6.58425 0.834168 -5.09145
RightToes  -1.27222e-014 -6.36111e-015 6.36111e-015
Spine  15.5299 -28.3879 -32.0166
Spine1  -15.4352 -19.0348 68.065
HEad  -37.1704 -21.117 6.75665
LeftShoulder1  6.36111e-015 -1.33558e-015 6.49777e-015
LeftArm  -32.596 -43.0298 18.6273
LeftForeArm  29.766 -26.759 -25.2422
LeftHand  -3.70632 -10.257 -19.0986
RightShoulder  -4.77083e-015 -6.36111e-015 -3.18055e-015
RightArm  33.6217 -23.8591 -13.8899
RightForeArm  -40.5839 14.9718 -34.9855
RightHand  1.93609 -5.48534 -5.50596
LeftUpLeg  7.18854 -3.3222 37.0815
LeftLeg  28.7137 -24.56 -13.2556
LeftFoot  -27.1891 0.873105 -15.171
LeftToes  1.27222e-014 -5.20697e-012 1.80337e-011
600
root  13.9883 32.7047 -10.3569 -161.666 -47.4108 -168.189
RightUpLeg  -46.9687 21.6269 -16.2947
RightLeg  -66.8388 -21.9919 11.7734
RightFoot  9.82691 0.368156 -5.53206
RightToes  -1.27222e-014 -6.36111e-015 6.36111e-015
Spine  14.9227 -26.9679 -28.967
Spine1  -16.2003 -18.0428 67.8648
HEad  -38.1443 -30.3002 9.02001
LeftShoulder1  6.36111e-015 -1.33558e-015 6.49777e-015
LeftArm  -33.0384 -54.3095 14.9151
LeftForeArm  17.1965 -24.7126 -18.0088
LeftHand  -3.67074 -9.94871 -16.9596
RightShoulder  -4.77083e-015 -6.36111e-015 -3.18055e-015
RightArm  39.9337 -29.453 -21.1964
RightForeArm  -34.7541 14.1698 -30.7892
RightHand  2.59541 -6.11865 -8.28389
LeftUpLeg  5.63473 0.936974 38.9277
LeftLeg  25.1515 -23.8755 -11.3564
LeftFoot  -25.5437 1.40334 -19.9695
LeftToes  1.27222e-014 -5.20697e-012 1.80337e-011
601
root  14.7693 32.1741 -11.0864 -164.32 -57.0209 -169.4
RightUpLeg  -45.9937 29.1526 -25.8098
RightLeg  -76.0527 -18.3701 11.0885
RightFoot  14.9644 0.860255 -8.23796
RightToes  -1.27222e-014 -6.36111e-015 6.36111e-015
Spine  12.6186 -25.2659 -24.0277
Spine1  -15.73 -17.3057 66.0382
HEad  -39.0145 -39.3923 10.0828
LeftShoulder1  6.36111e-015 -1.33558e-015 6.49777e-015
LeftArm  -31.1938 -64.3279 8.7785
LeftForeArm  4.31926 -20.0368 -9.00226
LeftHand  -3.92737 -11.0616 -17.1325
RightShoulder  -4.77083e-015 -6.36111e-015 -3.18055e-015
RightArm  47.0457 -32.3489 -27.8251
RightForeArm  -29.6363 9.05117 -23.5915
RightHand  2.87763 -5.94462 -10.0177
LeftUpLeg  3.35764 4.45545 40.775
LeftLeg  23.843 -20.7579 -9.21267
LeftFoot  -24.9824 1.72101 -23.0429
LeftToes  1.27222e-014 -5.20697e-012 1.80337e-011
